# xmcd
# 
# Track frame offsets:
#     150
#     19930
#     42812
#     58590
#     75597
#     96552
#     113282
#     130732
#     142577
#     164897
# 
# Disc length: 2485
# 
# Revision: 0
# Processed by: cddbd v1.5.2PL0 Copyright (c) Steve Scherf et al.
# Submitted via: fre:ac v1.0.27
# 
DISCID=7a09b30a
DTITLE=Various Artist - New World Music (Times)
DYEAR=0
DGENRE=New World
TTITLE0=Various Artist - John Williams - Liberty Fanfare
TTITLE1=Various Artist - George Gershwin - Rhapsody in Blue
TTITLE2=Various Artist - Aaron Copland - Appalachian Spring
TTITLE3=Various Artist - Samuel Barber - Knoxville: Summer of 1915
TTITLE4=Various Artist - Morton Gould - Interplay (American Concertette)
TTITLE5=Various Artist - Aaron Copland - Music for the Theatre
TTITLE6=Various Artist - Leonard Bernstein - Chichester Psalms (Psalms 108.2 and 100)
TTITLE7=Various Artist - George Gershwin - Rialto Ripples Rag
TTITLE8=Various Artist - Leroy Anderson - Piano Concerto in C
TTITLE9=Various Artist - Ferde Grofe - Grand Canyon Suite
EXTD=
EXTT0=
EXTT1=
EXTT2=
EXTT3=
EXTT4=
EXTT5=
EXTT6=
EXTT7=
EXTT8=
EXTT9=
PLAYORDER=
